<svg id="Layer_1" enable-background="new 0 0 510 510" height="512" viewBox="0 0 510 510" width="512" xmlns="http://www.w3.org/2000/svg"><g id="XMLID_1179_"><path id="XMLID_1269_" d="m502.5 180h-30v-67.918c0-45.26-36.822-82.082-82.082-82.082-12.677 0-25.37 2.996-36.708 8.665-27.914 13.958-59.165 21.335-90.374 21.335h-15.836l-30-30h45.836c26.576 0 53.188-6.282 76.958-18.168 15.481-7.74 32.814-11.832 50.124-11.832 61.802 0 112.082 50.279 112.082 112.082z" fill="#cfcfe6"/><path id="XMLID_1264_" d="m187.5 60v32.137l16.332 8.837 13.668-10.974 10-30-10-30c-16.568 0-30 13.432-30 30z" fill="#d10763"/><path id="XMLID_1261_" d="m247.5 60c0-16.568-13.432-30-30-30v60l15 10.974 15-8.836z" fill="#8c2a53"/><path id="XMLID_1258_" d="m7.5 300c0 115.794 94.205 210 210 210l10-204.696-10-215.304c-115.795 0-210 94.205-210 210z" fill="#ff4a4a"/><path id="XMLID_1255_" d="m217.5 90v420c115.794 0 210-94.206 210-210 0-115.795-94.206-210-210-210z" fill="#d10763"/><path id="XMLID_1252_" d="m68.25 285c7.05-70.76 63.49-127.2 134.25-134.25l15 59.25 10 95.303-10 84.697-15 59.25c-70.76-7.05-127.2-63.49-134.25-134.25l10-16.001z" fill="#fff5f5"/><path id="XMLID_1249_" d="m366.75 315c-7.05 70.76-63.49 127.2-134.25 134.25l-15-59.25v-180l15-59.25c70.76 7.05 127.2 63.49 134.25 134.25l-10 12.803z" fill="#ece6f2"/><path id="XMLID_1220_" d="m198.106 274.394-21.212 21.213 40.606 40.606 10-21.213-10-21.213z" fill="#6cf"/><path id="XMLID_1215_" d="m202.5 150.75v59.25h15l10-30-10-30c-5.06 0-10.06.25-15 .75z" fill="#ece6f2"/><path id="XMLID_1205_" d="m251.894 259.394-34.394 34.393v42.426l55.606-55.606z" fill="#4596e6"/><path id="XMLID_1202_" d="m232.5 150.75c-4.94-.5-9.94-.75-15-.75v60h15z" fill="#cfcfe6"/><path id="XMLID_1199_" d="m217.5 390 10 30-10 30c-5.06 0-10.06-.25-15-.75v-59.25z" fill="#ece6f2"/><path id="XMLID_1196_" d="m127.5 285v30h-59.25c-.5-4.94-.75-9.94-.75-15s.25-10.06.75-15z" fill="#ece6f2"/><g fill="#cfcfe6"><path id="XMLID_1193_" d="m232.5 390v59.25c-4.94.5-9.94.75-15 .75v-60z"/><path id="XMLID_1180_" d="m367.5 300c0 5.06-.25 10.06-.75 15h-59.25v-30h59.25c.5 4.94.75 9.94.75 15z"/></g></g></svg>